<?xml version="1.0" encoding="UTF-8" standalone="no"?>
<svg
   xmlns:dc="http://purl.org/dc/elements/1.1/"
   xmlns:cc="http://creativecommons.org/ns#"
   xmlns:rdf="http://www.w3.org/1999/02/22-rdf-syntax-ns#"
   xmlns:svg="http://www.w3.org/2000/svg"
   xmlns="http://www.w3.org/2000/svg"
   viewBox="0 0 184.96001 180.48"
   height="180.48"
   width="184.96001"
   id="svg2"
   version="1.1">
  <metadata
     id="metadata8">
    <rdf:RDF>
      <cc:Work
         rdf:about="">
        <dc:format>image/svg+xml</dc:format>
        <dc:type
           rdf:resource="http://purl.org/dc/dcmitype/StillImage" />
        <dc:title></dc:title>
      </cc:Work>
    </rdf:RDF>
  </metadata>
  <defs
     id="defs6" />
  <g
     transform="translate(0.76474584,0.76474536)"
     id="g12">
    <path
       id="path14"
       d="M 16.232664,138 C 7.6486603,115.516 0.62867306,96.868 0.63269229,96.56 0.63941504,96.044829 1.1715532,96.000157 7.2800004,96.001952 l 6.6400006,0.0019 12.455654,33.115728 c 6.850609,18.21365 12.517413,33.05396 12.592898,32.97848 0.07549,-0.0755 5.72527,-14.94244 12.555075,-33.03768 L 63.941459,96.16 l 6.625054,-0.0866 6.625053,-0.0866 -0.141072,1.046601 C 76.947086,97.800563 50.032931,168.82622 46.49062,177.68 l -0.480109,1.2 h -7.085283 -7.085285 z m 71.127341,-0.56 V 96 h 6.24 6.24 v 41.44 41.44 h -6.24 -6.24 z m 26.882475,36.56 0.003,-4.88 25.21363,-31.2 25.21364,-31.2 -24.57611,-0.082 -24.57619,-0.082 V 101.27803 96 h 32.96 32.96 l -0.0117,4.88 -0.0117,4.88 -25.22746,31.2 -25.22747,31.2 25.87916,0.0819 25.87916,0.0819 v 5.27812 5.27812 h -34.24 -34.24 l 0.003,-4.88 z M 6.7839325,84.14143 C 4.5795519,83.039888 3.4442501,81.855651 2.353472,79.52 c -1.0780316,-2.308358 -1.0780316,-6.971642 0,-9.28 C 3.4442501,67.904349 4.5795519,66.720112 6.7839325,65.61857 8.5633275,64.729395 9.0252136,64.64 11.840001,64.64 c 2.814787,0 3.276673,0.08939 5.056068,0.97857 2.20438,1.101542 3.339682,2.285779 4.43046,4.62143 0.618753,1.324915 0.747758,2.127626 0.750346,4.66889 0.0028,2.78591 -0.08711,3.249459 -0.975443,5.027177 -1.101542,2.204381 -2.28578,3.339683 -4.621431,4.430461 -1.324916,0.618752 -2.127626,0.747757 -4.668889,0.750346 -2.7859102,0.0029 -3.249461,-0.08711 -5.0271795,-0.975444 z m 31.6800025,0 C 36.259554,83.039888 35.124251,81.855651 34.033474,79.52 c -1.078032,-2.308358 -1.078032,-6.971642 0,-9.28 1.090777,-2.335651 2.22608,-3.519888 4.430461,-4.62143 1.779395,-0.889175 2.24128,-0.97857 5.056067,-0.97857 2.814788,0 3.276673,0.08939 5.056068,0.97857 2.204381,1.101542 3.339683,2.285779 4.430461,4.62143 0.618752,1.324915 0.747757,2.127626 0.750346,4.66889 0.0029,2.78591 -0.08711,3.249459 -0.975444,5.027177 -1.101542,2.204381 -2.285779,3.339683 -4.62143,4.430461 -1.324916,0.618752 -2.127626,0.747757 -4.66889,0.750346 -2.785911,0.0029 -3.24946,-0.08711 -5.027178,-0.975444 z m 31.680002,0 C 67.939556,83.039888 66.804253,81.855651 65.713476,79.52 c -1.078033,-2.308358 -1.078033,-6.971642 0,-9.28 1.090777,-2.335651 2.22608,-3.519888 4.430461,-4.62143 1.779395,-0.889175 2.24128,-0.97857 5.056067,-0.97857 2.814787,0 3.276672,0.08939 5.056068,0.97857 2.20438,1.101542 3.339683,2.285779 4.430461,4.62143 0.618752,1.324915 0.747756,2.127626 0.750345,4.66889 0.0029,2.78591 -0.08711,3.249459 -0.975443,5.027177 -1.101542,2.204381 -2.285779,3.339683 -4.621431,4.430461 -1.324915,0.618752 -2.127625,0.747757 -4.66889,0.750346 -2.78591,0.0029 -3.249459,-0.08711 -5.027177,-0.975444 z M 103.36001,43.36 V 1.92 l 9.04,0.00472 9.04,0.00472 9.90412,26.395276 c 5.44727,14.517401 9.98327,26.395033 10.08,26.394735 0.0967,-2.97e-4 4.64323,-11.844297 10.10332,-26.32 L 161.4549,2.08 170.48746,1.995016 179.52001,1.910033 V 43.355018 84.8 h -6.07853 -6.07854 L 167.28148,51.209226 167.20001,17.618452 157.5459,43.289226 147.89179,68.96 h -6.45591 -6.4559 L 125.32999,43.294154 115.68001,17.628308 115.59854,51.214154 115.51707,84.8 h -6.07853 -6.07853 z M 6.7839325,52.46143 C 4.5795519,51.359888 3.4442501,50.175651 2.353472,47.84 c -1.0780316,-2.308358 -1.0780316,-6.971642 0,-9.28 C 3.4442501,36.224349 4.5795519,35.040112 6.7839325,33.93857 8.5633275,33.049395 9.0252136,32.96 11.840001,32.96 c 2.814787,0 3.276673,0.08939 5.056068,0.97857 2.20438,1.101542 3.339682,2.285779 4.43046,4.62143 0.618753,1.324915 0.747758,2.127626 0.750346,4.66889 0.0028,2.78591 -0.08711,3.249459 -0.975443,5.027177 -1.101542,2.204381 -2.28578,3.339683 -4.621431,4.430461 -1.324916,0.618752 -2.127626,0.747757 -4.668889,0.750346 -2.7859102,0.0029 -3.249461,-0.08711 -5.0271795,-0.975444 z m 31.6800025,0 C 36.259554,51.359888 35.124251,50.175651 34.033474,47.84 c -1.078032,-2.308358 -1.078032,-6.971642 0,-9.28 1.090777,-2.335651 2.22608,-3.519888 4.430461,-4.62143 1.779395,-0.889175 2.24128,-0.97857 5.056067,-0.97857 2.814788,0 3.276673,0.08939 5.056068,0.97857 2.204381,1.101542 3.339683,2.285779 4.430461,4.62143 0.618752,1.324915 0.747757,2.127626 0.750346,4.66889 0.0029,2.78591 -0.08711,3.249459 -0.975444,5.027177 -1.101542,2.204381 -2.285779,3.339683 -4.62143,4.430461 -1.324916,0.618752 -2.127626,0.747757 -4.66889,0.750346 -2.785911,0.0029 -3.24946,-0.08711 -5.027178,-0.975444 z m 31.680002,0 C 67.939556,51.359888 66.804253,50.175651 65.713476,47.84 c -1.078033,-2.308358 -1.078033,-6.971642 0,-9.28 1.090777,-2.335651 2.22608,-3.519888 4.430461,-4.62143 1.779395,-0.889175 2.24128,-0.97857 5.056067,-0.97857 2.814787,0 3.276672,0.08939 5.056068,0.97857 2.20438,1.101542 3.339683,2.285779 4.430461,4.62143 0.618752,1.324915 0.747756,2.127626 0.750345,4.66889 0.0029,2.78591 -0.08711,3.249459 -0.975443,5.027177 -1.101542,2.204381 -2.285779,3.339683 -4.621431,4.430461 -1.324915,0.618752 -2.127625,0.747757 -4.66889,0.750346 -2.78591,0.0029 -3.249459,-0.08711 -5.027177,-0.975444 z M 6.7839325,20.461431 C 4.5795519,19.359889 3.4442501,18.175651 2.353472,15.84 1.2754404,13.531642 1.2754404,8.8683578 2.353472,6.56 3.4442501,4.2243488 4.5795519,3.0401111 6.7839325,1.9385691 8.5633275,1.0493951 9.0252136,0.96 11.840001,0.96 c 2.814787,0 3.276673,0.0893951 5.056068,0.9785691 2.20438,1.101542 3.339682,2.2857797 4.43046,4.6214309 0.618753,1.3249162 0.747758,2.1276259 0.750346,4.668889 0.0028,2.78591 -0.08711,3.24946 -0.975443,5.027179 -1.101542,2.20438 -2.28578,3.339682 -4.621431,4.43046 -1.324916,0.618752 -2.127626,0.747757 -4.668889,0.750346 -2.7859102,0.0028 -3.249461,-0.08711 -5.0271795,-0.975443 z m 31.3600025,0 C 35.939554,19.359889 34.804251,18.175651 33.713474,15.84 c -1.078032,-2.308358 -1.078032,-6.9716422 0,-9.28 1.090777,-2.3356512 2.22608,-3.5198889 4.430461,-4.6214309 C 39.92333,1.0493951 40.385215,0.96 43.200002,0.96 c 2.814788,0 3.276673,0.0893951 5.056068,0.9785691 2.204381,1.101542 3.339683,2.2857797 4.430461,4.6214309 0.618752,1.3249162 0.747757,2.1276259 0.750345,4.668889 0.0029,2.78591 -0.08711,3.24946 -0.975443,5.027179 -1.101542,2.20438 -2.285779,3.339682 -4.62143,4.43046 -1.324916,0.618752 -2.127626,0.747757 -4.66889,0.750346 -2.785911,0.0028 -3.24946,-0.08711 -5.027178,-0.975443 z m 31.680002,0 C 67.619556,19.359889 66.484253,18.175651 65.393476,15.84 c -1.078033,-2.308358 -1.078033,-6.9716422 0,-9.28 1.090777,-2.3356512 2.22608,-3.5198889 4.430461,-4.6214309 C 71.603332,1.0493951 72.065217,0.96 74.880004,0.96 c 2.814787,0 3.276672,0.0893951 5.056068,0.9785691 2.20438,1.101542 3.339683,2.2857797 4.430461,4.6214309 0.618752,1.3249162 0.747756,2.1276259 0.750345,4.668889 0.0029,2.78591 -0.08711,3.24946 -0.975443,5.027179 -1.101543,2.20438 -2.285779,3.339682 -4.621431,4.43046 -1.324915,0.618752 -2.127625,0.747757 -4.66889,0.750346 -2.78591,0.0028 -3.249459,-0.08711 -5.027177,-0.975443 z"
       style="fill:#fefefe;stroke-width:0.32000002" />
  </g>
</svg>
