<?xml version="1.0" encoding="UTF-8" standalone="no"?>
<svg
   xmlns:dc="http://purl.org/dc/elements/1.1/"
   xmlns:cc="http://creativecommons.org/ns#"
   xmlns:rdf="http://www.w3.org/1999/02/22-rdf-syntax-ns#"
   xmlns:svg="http://www.w3.org/2000/svg"
   xmlns="http://www.w3.org/2000/svg"
   viewBox="0 0 184.96001 180.48"
   height="180.48"
   width="184.96001"
   id="svg2"
   version="1.1">
  <metadata
     id="metadata8">
    <rdf:RDF>
      <cc:Work
         rdf:about="">
        <dc:format>image/svg+xml</dc:format>
        <dc:type
           rdf:resource="http://purl.org/dc/dcmitype/StillImage" />
        <dc:title></dc:title>
      </cc:Work>
    </rdf:RDF>
  </metadata>
  <defs
     id="defs6" />
  <g
     transform="translate(243.95389,55.061694)"
     id="g12">
    <path
       id="path14"
       d="m -227.59019,81.658307 c -8.65611,-22.484 -15.73506,-41.132 -15.73101,-41.44 0.007,-0.515171 0.54339,-0.559843 6.70314,-0.558048 l 6.69577,0.0019 12.56029,33.115728 c 6.90815,18.21365 12.62255,33.053963 12.69868,32.978483 0.0761,-0.0755 5.77336,-14.942443 12.66053,-33.037683 l 12.52213,-32.90038 6.68071,-0.0866 6.6807,-0.0866 -0.14226,1.046601 c -0.10427,0.767162 -27.24451,71.792822 -30.81657,80.646602 l -0.48414,1.2 h -7.1448 -7.14479 z m 71.72479,-0.56 v -41.44 h 6.29242 6.29241 v 41.44 41.440003 h -6.29241 -6.29242 z m 27.10828,36.560003 0.003,-4.88 25.42542,-31.200003 25.425433,-31.2 -24.782543,-0.082 -24.78263,-0.082 v -5.277974 -5.278026 h 33.236861 33.236856 l -0.0118,4.88 -0.0118,4.88 -25.439365,31.2 -25.439372,31.200003 26.096536,0.0819 26.096539,0.0819 v 5.27812 5.27812 H -94.231593 -128.7592 l 0.003,-4.88 z m -107.3931,-86.018573 c -2.2229,-1.101542 -3.36775,-2.285779 -4.46768,-4.62143 -1.08709,-2.308358 -1.08709,-6.971642 0,-9.28 1.09993,-2.335651 2.24478,-3.519888 4.46768,-4.62143 1.79433,-0.889175 2.2601,-0.97857 5.09853,-0.97857 2.83843,0 3.3042,0.08939 5.09854,0.97857 2.22289,1.101542 3.36773,2.285779 4.46767,4.62143 0.62396,1.324915 0.75404,2.127626 0.75665,4.66889 0.003,2.78591 -0.0878,3.249459 -0.98363,5.027177 -1.1108,2.204381 -2.30498,3.339683 -4.66026,4.430461 -1.33604,0.618752 -2.14549,0.747757 -4.7081,0.750346 -2.80931,0.0029 -3.27676,-0.08711 -5.0694,-0.975444 z m 31.9461,0 c -2.2229,-1.101542 -3.36773,-2.285779 -4.46767,-4.62143 -1.08709,-2.308358 -1.08709,-6.971642 0,-9.28 1.09994,-2.335651 2.24477,-3.519888 4.46767,-4.62143 1.79434,-0.889175 2.26011,-0.97857 5.09854,-0.97857 2.83842,0 3.30419,0.08939 5.09853,0.97857 2.2229,1.101542 3.36774,2.285779 4.46768,4.62143 0.62395,1.324915 0.75404,2.127626 0.75665,4.66889 0.003,2.78591 -0.0878,3.249459 -0.98364,5.027177 -1.1108,2.204381 -2.30498,3.339683 -4.66024,4.430461 -1.33605,0.618752 -2.14551,0.747757 -4.70811,0.750346 -2.80931,0.0029 -3.27676,-0.08711 -5.06941,-0.975444 z m 31.94611,0 c -2.2229,-1.101542 -3.36774,-2.285779 -4.46768,-4.62143 -1.08708,-2.308358 -1.08708,-6.971642 0,-9.28 1.09994,-2.335651 2.24478,-3.519888 4.46768,-4.62143 1.79434,-0.889175 2.2601,-0.97857 5.09853,-0.97857 2.83843,0 3.3042,0.08939 5.09854,0.97857 2.2229,1.101542 3.36774,2.285779 4.46768,4.62143 0.62395,1.324915 0.75403,2.127626 0.75664,4.66889 0.003,2.78591 -0.0878,3.249459 -0.98363,5.027177 -1.11079,2.204381 -2.30498,3.339683 -4.66025,4.430461 -1.33605,0.618752 -2.1455,0.747757 -4.70811,0.750346 -2.80931,0.0029 -3.27675,-0.08711 -5.0694,-0.975444 z M -139.731,-9.4616933 V -50.901693 l 9.11593,0.0047 9.11594,0.0047 9.98731,26.395276 c 5.49302,14.5174007 10.06712,26.3950323 10.16467,26.3947343 0.0975,-2.97e-4 4.682232,-11.8442966 10.188185,-26.3199993 l 10.010839,-26.319451 9.108431,-0.08498 9.108421,-0.08498 V -9.4667083 31.978274 h -6.129588 -6.129598 l -0.08214,-33.5907747 -0.08215,-33.5907733 -9.735202,25.6707737 -9.735202,25.6707743 h -6.510136 -6.51013 l -9.73105,-25.6658463 -9.73104,-25.6658457 -0.0822,33.5858453 -0.0822,33.5858467 h -6.12958 -6.12959 z m -96.41922,9.42142968 c -2.2229,-1.10154208 -3.36775,-2.28577908 -4.46768,-4.62143008 -1.08709,-2.308358 -1.08709,-6.9716413 0,-9.2799993 1.09993,-2.335651 2.24478,-3.519888 4.46768,-4.62143 1.79433,-0.889175 2.2601,-0.97857 5.09853,-0.97857 2.83843,0 3.3042,0.08939 5.09854,0.97857 2.22289,1.101542 3.36773,2.285779 4.46767,4.62143 0.62396,1.324915 0.75404,2.127626 0.75665,4.6688897 0.003,2.7859096 -0.0878,3.2494586 -0.98363,5.0271766 -1.1108,2.204381 -2.30498,3.33968304 -4.66026,4.43046108 -1.33604,0.618752 -2.14549,0.747757 -4.7081,0.750346 -2.80931,0.0029 -3.27676,-0.08711 -5.0694,-0.975444 z m 31.9461,0 c -2.2229,-1.10154208 -3.36773,-2.28577908 -4.46767,-4.62143008 -1.08709,-2.308358 -1.08709,-6.9716413 0,-9.2799993 1.09994,-2.335651 2.24477,-3.519888 4.46767,-4.62143 1.79434,-0.889175 2.26011,-0.97857 5.09854,-0.97857 2.83842,0 3.30419,0.08939 5.09853,0.97857 2.2229,1.101542 3.36774,2.285779 4.46768,4.62143 0.62395,1.324915 0.75404,2.127626 0.75665,4.6688897 0.003,2.7859096 -0.0878,3.2494586 -0.98364,5.0271766 -1.1108,2.204381 -2.30498,3.33968304 -4.66024,4.43046108 -1.33605,0.618752 -2.14551,0.747757 -4.70811,0.750346 -2.80931,0.0029 -3.27676,-0.08711 -5.06941,-0.975444 z m 31.94611,0 c -2.2229,-1.10154208 -3.36774,-2.28577908 -4.46768,-4.62143008 -1.08708,-2.308358 -1.08708,-6.9716413 0,-9.2799993 1.09994,-2.335651 2.24478,-3.519888 4.46768,-4.62143 1.79434,-0.889175 2.2601,-0.97857 5.09853,-0.97857 2.83843,0 3.3042,0.08939 5.09854,0.97857 2.2229,1.101542 3.36774,2.285779 4.46768,4.62143 0.62395,1.324915 0.75403,2.127626 0.75664,4.6688897 0.003,2.7859096 -0.0878,3.2494586 -0.98363,5.0271766 -1.11079,2.204381 -2.30498,3.33968304 -4.66025,4.43046108 -1.33605,0.618752 -2.1455,0.747757 -4.70811,0.750346 -2.80931,0.0029 -3.27675,-0.08711 -5.0694,-0.975444 z M -236.15022,-32.040262 c -2.2229,-1.101542 -3.36775,-2.28578 -4.46768,-4.621431 -1.08709,-2.308358 -1.08709,-6.971642 0,-9.28 1.09993,-2.335652 2.24478,-3.519889 4.46768,-4.621431 1.79433,-0.889174 2.2601,-0.978569 5.09853,-0.978569 2.83843,0 3.3042,0.08939 5.09854,0.978569 2.22289,1.101542 3.36773,2.285779 4.46767,4.621431 0.62396,1.324916 0.75404,2.127626 0.75665,4.668889 0.003,2.78591 -0.0878,3.24946 -0.98363,5.027179 -1.1108,2.20438 -2.30498,3.339682 -4.66026,4.43046 -1.33604,0.618752 -2.14549,0.747757 -4.7081,0.750346 -2.80931,0.0028 -3.27676,-0.08711 -5.0694,-0.975443 z m 31.62341,0 c -2.22289,-1.101542 -3.36773,-2.28578 -4.46767,-4.621431 -1.08709,-2.308358 -1.08709,-6.971642 0,-9.28 1.09994,-2.335652 2.24478,-3.519889 4.46767,-4.621431 1.79434,-0.889174 2.26011,-0.978569 5.09854,-0.978569 2.83843,0 3.3042,0.08939 5.09853,0.978569 2.2229,1.101542 3.36774,2.285779 4.46768,4.621431 0.62395,1.324916 0.75404,2.127626 0.75665,4.668889 0.003,2.78591 -0.0878,3.24946 -0.98363,5.027179 -1.11081,2.20438 -2.30498,3.339682 -4.66025,4.43046 -1.33605,0.618752 -2.1455,0.747757 -4.70811,0.750346 -2.80931,0.0028 -3.27675,-0.08711 -5.06941,-0.975443 z m 31.94611,0 c -2.2229,-1.101542 -3.36774,-2.28578 -4.46768,-4.621431 -1.08708,-2.308358 -1.08708,-6.971642 0,-9.28 1.09994,-2.335652 2.24478,-3.519889 4.46768,-4.621431 1.79434,-0.889174 2.2601,-0.978569 5.09854,-0.978569 2.83842,0 3.30419,0.08939 5.09854,0.978569 2.22289,1.101542 3.36773,2.285779 4.46767,4.621431 0.62395,1.324916 0.75403,2.127626 0.75664,4.668889 0.003,2.78591 -0.0878,3.24946 -0.98363,5.027179 -1.11079,2.20438 -2.30498,3.339682 -4.66025,4.43046 -1.33605,0.618752 -2.1455,0.747757 -4.70811,0.750346 -2.80931,0.0028 -3.27675,-0.08711 -5.0694,-0.975443 z"
       style="fill:#fefefe;stroke-width:0.32134119" />
  </g>
</svg>
